<?xml version="1.0" encoding="utf-8"?>
<!-- Generator: Adobe Illustrator 20.1.0, SVG Export Plug-In . SVG Version: 6.00 Build 0)  -->
<svg version="1.1" id="Слой_1" xmlns="http://www.w3.org/2000/svg" xmlns:xlink="http://www.w3.org/1999/xlink" x="0px" y="0px"
	 viewBox="0 0 250 250" style="enable-background:new 0 0 250 250;" xml:space="preserve">
<style type="text/css">
	.st0{fill:none;}
</style>
<path d="M188.8,226.5h-1v-37.2c0-0.9-0.3-1.7-0.7-2.4l-13.6-20l-4.5-77.4c0.5-0.7,0.8-1.6,0.8-2.5c0,0,0,0,0,0l13.4-19.3
	c0.5-0.7,0.8-1.6,0.8-2.4V24.1c0-2.4-1.9-4.3-4.3-4.3h-25c-2.4,0-4.3,1.9-4.3,4.3v13.2h-11.5V24.1c0-2.4-1.9-4.3-4.3-4.3h-23.5
	c-2.4,0-4.3,1.9-4.3,4.3v13.2H95.3V24.1c0-2.4-1.9-4.3-4.3-4.3H66c-2.4,0-4.3,1.9-4.3,4.3v41.1c0,0.9,0.3,1.7,0.8,2.4l14,20.1
	c0.1,0.4,0.2,0.7,0.3,1l-4.6,78.1l-13.6,20c-0.5,0.7-0.7,1.5-0.7,2.4v37.2h-1.2c-2.4,0-4.3,1.9-4.3,4.3s1.9,4.3,4.3,4.3h5.5h121.4
	h5.2c2.4,0,4.3-1.9,4.3-4.3S191.1,226.5,188.8,226.5z M79,172.1h87.7l9.1,13.3H69.9L79,172.1z M162.3,82.7H83.4l-11-15.9h100.8
	L162.3,82.7z M85.2,91.3h75.2l4.2,72.3H81L85.2,91.3z M86.8,28.4v13.2c0,2.4,1.9,4.3,4.3,4.3h20c2.4,0,4.3-1.9,4.3-4.3V28.4h15v13.2
	c0,2.4,1.9,4.3,4.3,4.3h20c2.4,0,4.3-1.9,4.3-4.3V28.4h16.5v30H70.3v-30H86.8z M66.4,226.5v-32.5h112.9v32.5H66.4z"/>
</svg>
