<?xml version="1.0" encoding="utf-8"?>
<!-- Generator: Adobe Illustrator 20.1.0, SVG Export Plug-In . SVG Version: 6.00 Build 0)  -->
<svg version="1.1" id="Слой_1" xmlns="http://www.w3.org/2000/svg" xmlns:xlink="http://www.w3.org/1999/xlink" x="0px" y="0px"
	 viewBox="0 0 250 250" style="enable-background:new 0 0 250 250;" xml:space="preserve">
<style type="text/css">
	.st0{fill:none;}
	path,circle {fill:#e00a1e}
</style>
<g>
	<circle cx="90.6" cy="213" r="20.2"/>
	<circle cx="195" cy="213" r="20.2"/>
	<path d="M241.8,51.8c-1.4-1.8-3.5-2.8-5.7-2.8H56.9l-5-23.6c-0.7-3.3-3.7-5.7-7.1-5.7H11.9c-4,0-7.2,3.2-7.2,7.2
		c0,4,3.2,7.2,7.2,7.2h27l30.7,144.3c0.7,3.3,3.7,5.7,7.1,5.7h131.9c4,0,7.2-3.2,7.2-7.2c0-4-3.2-7.2-7.2-7.2h-126l-3.3-15.5h133.7
		c3.3,0,6.2-2.2,7-5.5l23.2-90.8C243.7,55.9,243.2,53.6,241.8,51.8z M218.9,94.4h-39.8V63.5h47.7L218.9,94.4z M119.5,94.4V63.5h45.1
		v30.9H119.5z M164.6,108.9v30.9h-45.1v-30.9H164.6z M105,63.5v30.9H66.5L60,63.5H105z M69.6,108.9H105v30.9H76.2L69.6,108.9z
		 M207.3,139.8h-28.2v-30.9h36.1L207.3,139.8z"/>
</g>
</svg>
