<svg xmlns="http://www.w3.org/2000/svg" width="30" height="30" viewBox="0 0 30 30">
  <g id="ikon_dostavka_produktov" transform="translate(-885.52 -258)">
    <circle id="Ellipse_9" data-name="Ellipse 9" cx="15" cy="15" r="15" transform="translate(885.52 258)" fill="#01b6d8"/>
    <g id="Group_42" data-name="Group 42" transform="translate(41 25.099)">
      <g id="Group_39" data-name="Group 39" transform="translate(848.708 241.621)">
        <g id="Group_38" data-name="Group 38" transform="translate(0 0)">
          <g id="Group_7" data-name="Group 7">
            <path id="Path_770" data-name="Path 770" d="M5889.459,38614.859h1.321v-.66h-1.321Z" transform="translate(-5888.138 -38605.824)" fill="#fff"/>
            <path id="Path_771" data-name="Path 771" d="M5854.2,38403.16h2.641v-.66H5854.2Z" transform="translate(-5853.539 -38398.082)" fill="#fff"/>
            <path id="Path_772" data-name="Path 772" d="M5818.89,38191.555h3.96v-.656h-3.96Z" transform="translate(-5818.89 -38190.445)" fill="#fff"/>
            <path id="Path_773" data-name="Path 773" d="M6111.241,38175.5v-.336h-9.061l1.394-7.961h8.783l-1.441,8.242.325.055v0l.325.055,1.51-8.625a.33.33,0,0,0-.325-.383H6103.3a.325.325,0,0,0-.324.273l-1.511,8.625a.334.334,0,0,0,.074.266.315.315,0,0,0,.252.117h9.454a.325.325,0,0,0,.325-.273Z" transform="translate(-6096.17 -38166.547)" fill="#fff"/>
            <path id="Path_774" data-name="Path 774" d="M6101,38627.594v-.328H6086.57a.337.337,0,0,0-.326.277l-.29,1.66a.338.338,0,0,0,.072.266.344.344,0,0,0,.253.113h14.43a.328.328,0,0,0,.325-.273l.291-1.656a.315.315,0,0,0-.072-.266.323.323,0,0,0-.253-.121v.328l-.325-.051-.242,1.379h-13.76l.175-1H6101v-.332l-.325-.051Z" transform="translate(-6080.951 -38618.645)" fill="#fff"/>
            <path id="Path_775" data-name="Path 775" d="M6671.71,38309h1.888l.978,2.555a.313.313,0,0,0,.2.191l.818.289-.417,2.375a.331.331,0,0,0,.651.125l.465-2.664a.338.338,0,0,0-.217-.371l-.939-.32-1-2.629a.324.324,0,0,0-.31-.211h-2.115a.33.33,0,1,0,0,.66Z" transform="translate(-6655.427 -38305.68)" fill="#fff"/>
            <path id="Path_776" data-name="Path 776" d="M6142.931,38785.93a1.231,1.231,0,0,1-1.171,1,.812.812,0,0,1-.822-1,1.238,1.238,0,0,1,1.171-.992A.812.812,0,0,1,6142.931,38785.93Z" transform="translate(-6134.896 -38773.367)" fill="#fff"/>
            <path id="Path_777" data-name="Path 777" d="M6657.48,38785.93a1.229,1.229,0,0,1-1.171,1,.812.812,0,0,1-.822-1,1.237,1.237,0,0,1,1.17-.992A.812.812,0,0,1,6657.48,38785.93Z" transform="translate(-6639.817 -38773.367)" fill="#fff"/>
            <path id="Path_778" data-name="Path 778" d="M6740.1,38398.785l.261-1.492a.331.331,0,0,0-.65-.121l-.262,1.5a.33.33,0,0,0,.65.117Z" transform="translate(-6722.219 -38392.598)" fill="#fff"/>
            <path id="Path_779" data-name="Path 779" d="M6017.662,38715.8h-2.323a.333.333,0,0,0-.33.332.327.327,0,0,0,.33.328h2.323a.328.328,0,0,0,.33-.328A.334.334,0,0,0,6017.662,38715.8Z" transform="translate(-6011.34 -38705.523)" fill="#fff"/>
          </g>
        </g>
      </g>
    </g>
  </g>
</svg>
