<?xml version="1.0" encoding="utf-8"?>
<!-- Generator: Adobe Illustrator 16.0.0, SVG Export Plug-In . SVG Version: 6.00 Build 0)  -->
<!DOCTYPE svg PUBLIC "-//W3C//DTD SVG 1.1 Tiny//EN" "http://www.w3.org/Graphics/SVG/1.1/DTD/svg11-tiny.dtd">
<svg version="1.1" baseProfile="tiny" id="Слой_1"
	 xmlns="http://www.w3.org/2000/svg" xmlns:xlink="http://www.w3.org/1999/xlink" x="0px" y="0px" width="303px" height="280px"
	 viewBox="0 0 303 280" xml:space="preserve">
<rect y="-3" display="none" fill="#5BBC2E" width="306.667" height="286.667"/>
<circle fill="#FFFFFF" cx="164.267" cy="92.093" r="61.234"/>
<path fill="#FFFFFF" d="M225.501,90.262c0.001,0-0.157,12.094,1.315,13.785c1.373,1.577,7.027,0.28,12.674-0.031
	c9.031-0.499,14.828,2.037,18.053,3.291c5.136,1.996,15.404,10.27,11.41,28.811c-3.993,18.541-19.682,23.106-31.947,22.82
	c-12.268-0.285-20.467,1.373-31.059-21.992c-10.59-23.363-85.719-2.334-85.719-2.334l-53.33,22.142c0,0-36.515-4.944-33.471-40.698
	c3.042-35.754,38.458-41.617,51.345-39.176c8.535,1.617,73.409-0.909,73.409-0.909L225.501,90.262z"/>
<path fill="#5BBC2E" d="M242.572,216.839c-6.854,3.867-41.349,24.563-67.66,40.253c-0.556,0.321-1.11,0.652-1.656,0.983
	c-13.674,8.046-24.935,14.662-28.51,16.773c-0.464,0.253-0.767,0.408-0.887,0.446c-8.923,3.143-12.884-7.153-12.884-7.153
	s-15.989-27.597-32.461-56.161l0.02-0.019c-15.257-26.485-29.54-51.393-30.368-53.308c-0.376-0.855-0.682-1.7-0.919-2.525
	c-0.009-0.02-0.009-0.03-0.019-0.05c-0.917-2.615-2.12-7.966-0.379-15.278c2.277-9.514,18.605-61.673,18.605-61.673
	s1.721-6.712,7.716-9.434c0,0,2.773-2.615,13.356-0.25c9.048,2.029,59.635,15.392,59.635,15.392s7.831,0.618,13.339,8.08
	c0.793,1.073,6.961,11.585,15.306,25.945l-0.01,0.01c20.21,34.856,48.019,83.23,48.019,83.23S249.755,210.686,242.572,216.839z"/>
<path fill="#FFFFFF" stroke="#FFFFFF" stroke-miterlimit="10" d="M74.071,183.634c-9.34-0.645-18.676-2.026-27.543-5.283
	c-4.441-1.622-8.747-3.65-12.909-5.99c-4.163-2.34-8.146-5.07-11.815-8.233c-7.309-6.317-12.151-15.438-15.664-24.684
	c-1.772-4.585-3.137-9.371-3.725-14.238c-0.424-2.426-0.473-4.869-0.653-7.309l-0.056-0.357l0.017-0.466l0.002-0.217l0.006-0.869
	l0.011-1.735c0.026-1.178-0.034-2.262,0.103-3.561c0.265-5.081,1.108-9.865,2.451-14.665c1.426-4.755,3.48-9.327,6.023-13.598
	c2.557-4.272,5.764-8.118,9.309-11.53c3.531-3.439,6.376-6.053,10.514-8.572c8.316-5.023,17.433-8.312,26.717-10.315
	c4.648-0.99,9.358-1.647,14.1-1.915c4.754-0.159,9.506-0.269,14.376,0.86l-1.832,0.872c2.349-4.255,4.76-8.219,7.501-12.174
	c2.864-3.742,4.975-6.985,8.269-10.348c3.315-3.348,6.884-6.447,10.653-9.289c3.754-2.853,7.707-5.485,11.905-7.69
	c4.173-2.234,8.491-4.265,13.005-5.797c4.511-1.507,10.497-2.777,15.223-3.5c2.35-0.477,4.734-0.65,7.113-0.957
	c2.381-0.162,4.178-0.345,6.568-0.369c2.393,0.035,3.276-0.019,5.66,0.199c2.394,0.129,4.121,0.333,6.49,0.678
	c1.227,0.159,3.156,0.632,4.511,0.851l0.784,0.207c2.247,0.364,4.641,0.984,7.016,1.572c2.402,0.536,4.637,1.372,6.957,2.075
	c2.266,0.854,4.554,1.659,6.771,2.655c4.475,1.903,8.746,4.305,12.857,6.971c4.055,2.759,8.695,6.154,12.213,9.603
	c3.53,3.443,7.424,7.781,10.207,11.847c2.773,4.077,5.154,8.412,7.136,12.917c1.968,4.506,3.593,9.165,4.739,13.951
	c0.578,2.391,1.332,5.468,2.236,8.177c0.665,2.562,2.524,2.946,2.524,2.946c0.984,0.267,0.599,0.201,2.12,0.477
	c1.85,0.407,3.154,0.921,4.961,1.474c3.623,1.063,7.139,2.495,10.545,4.188c6.802,3.382,13.166,8.043,18.168,14.063
	c4.974,6.028,8.339,13.383,9.797,20.904c0.45,1.873,0.299,2.483,0.572,4.368c0.089,1.89,0.318,3.785,0.256,5.661l-0.04,2.814
	l-0.006,0.353l-0.026,0.374l-0.016,0.165l-0.068,0.659l-0.131,1.318l-0.533,5.267c-0.215,1.781-0.324,3.636-0.686,5.481
	l-0.598,2.797c-0.231,0.918-0.584,1.79-0.869,2.686c-0.65,1.761-1.118,3.578-1.926,5.28l-2.544,5.047
	c-0.956,1.622-2.101,3.143-3.141,4.702c-0.497,0.799-1.105,1.521-1.756,2.206l-1.891,2.096c-1.185,1.464-2.712,2.587-4.114,3.824
	c-1.368,1.281-2.957,2.268-4.512,3.289c-0.787,0.491-1.525,1.069-2.352,1.481l-2.472,1.258c-0.833,0.401-1.631,0.869-2.485,1.212
	l-2.572,0.983c-0.863,0.309-1.71,0.668-2.588,0.916l-2.646,0.7c-1.75,0.516-3.539,0.83-5.326,1.12
	c-1.773,0.364-3.576,0.508-5.371,0.669c-1.787,0.224-3.592,0.203-5.381,0.248c-3.586,0.079-7.158-0.317-10.677-0.795l0.38-2.55
	c3.323,0.523,6.119,0.46,9.934,0.428c2.674-0.081,3.596-0.296,5.527-0.583c1.703-0.314,2.945-0.444,4.596-0.948
	c1.668-0.441,3.324-0.894,4.913-1.543l2.403-0.885c0.795-0.31,1.542-0.729,2.314-1.078l2.307-1.07c0.76-0.367,1.46-0.854,2.19-1.271
	l2.165-1.293c0.723-0.428,1.469-0.833,2.145-1.322c1.33-1.014,2.902-1.681,4.026-2.917c1.157-1.189,2.444-2.251,3.386-3.627
	l1.522-1.947c0.529-0.634,1.017-1.297,1.397-2.038c0.807-1.439,1.412-2.406,2.446-4.282l2.113-4.473
	c0.593-1.532,0.81-2.713,1.296-4.286c0.213-0.795,0.63-2.051,0.787-2.853l0.755-2.721c0.225-1.63,0.595-3.128,0.72-4.853
	l0.266-5.292l0.064-1.32l0.035-0.663l0.007-0.165l0.005-0.082l0.01-0.166c0.004-0.063-0.02,0.364-0.01,0.166l-0.02-0.182
	l0.092-2.516c0-1.656-0.124-3.324-0.25-4.955c-0.188-1.635-0.146-3.346-0.592-4.895c-1.438-6.297-4.458-12-8.535-16.801
	c-4.137-4.775-9.456-8.559-15.334-11.341c-2.936-1.409-6.025-2.523-9.162-3.491c-3.08-0.946-6.502-1.715-9.393-2.074l-4.313-0.539
	l-0.451-4.004c-0.037-1.814-0.646-3.659-0.949-5.754c-0.318-2.148-1.003-4.637-1.511-6.761c-0.955-4.267-2.473-8.464-4.13-12.505
	c-1.66-4.041-3.68-7.929-6.043-11.591c-2.37-3.651-5.037-7.125-8.092-10.244c-3.041-3.128-6.377-5.972-9.941-8.532
	c-3.636-2.455-7.412-4.746-11.427-6.632c-1.984-0.98-4.061-1.785-6.11-2.646c-2.106-0.697-4.196-1.598-6.307-2.181
	c-2.108-0.633-4.177-1.309-6.497-1.808l-3.39-0.813l-3.231-0.611c-2.206-0.47-4.436-0.775-6.671-1.04
	c-2.234-0.354-4.48-0.41-6.732-0.59c-2.246-0.123-4.501-0.092-6.754-0.088c-2.243,0.155-4.512,0.149-6.746,0.485
	c-4.498,0.429-8.754,1.647-13.082,3.133c-4.373,1.51-6.516,2.608-10.625,4.565c-8.18,4.013-15.324,9.883-21.822,16.33
	c-3.279,3.2-6.235,6.722-8.981,10.382c-2.73,3.643-5.506,7.24-7.444,11.227l-1.22,2.194l-3.655-0.531
	c-4.217-0.787-8.838-0.614-13.293-0.084c-4.482,0.564-8.518,0.935-12.854,2.177c-8.657,2.513-16.708,5.673-23.947,10.745
	c-3.631,2.512-6.924,5.42-9.95,8.52c-3.025,3.107-5.631,6.571-7.759,10.293c-2.158,3.7-3.902,7.641-5.109,11.771
	c-1.131,4.117-2.034,8.475-2.305,12.647c-0.303,4.556-0.29,8.854,0.274,13.204c0.448,4.336,1.789,7.983,3.214,12.072
	c1.91,5.673,3.607,8.662,5.903,12.945c2.372,3.652,4.581,7.114,7.762,10.189c5.531,5.771,6.655,6.069,10.38,8.574
	c3.727,2.51,7.764,4.432,11.851,6.418c4.094,1.978,8.354,3.64,12.681,5.153c4.341,1.452,8.907,1.988,13.413,2.905L74.071,183.634z"
	/>
<path fill="#FFFFFF" d="M214.826,131.141c0.353,15.2,13.222,27.228,28.744,26.867c15.521-0.361,27.458-12.971,27.465-28.174
	c0.008-16.68-12.583-26.455-28.104-26.093C227.408,104.102,214.472,115.941,214.826,131.141z"/>
<path fill="none" stroke="#FFFFFF" stroke-width="6" stroke-miterlimit="10" d="M101.553,86.447c0,0,2.113-2.11,10.311-0.371
	c7.013,1.486,46.243,11.412,46.243,11.412s6.053,0.388,10.4,6.225c2.137,2.874,54.406,92.67,54.406,92.67s5.467,6.704,0,11.673
	c-5.465,4.972-71.797,44.721-71.797,44.721s-6.956,3.725-11.429-1.244c-4.47-4.969-56.456-94.916-56.456-94.916
	s-2.92-5.078-1.1-13.511c1.636-7.56,13.581-49.08,13.581-49.08S96.958,88.684,101.553,86.447z"/>
<circle fill="#FFFFFF" cx="118.007" cy="115.151" r="6.418"/>
<path fill="none" stroke="#FFFFFF" stroke-width="5" stroke-miterlimit="10" d="M138.592,164.784c0,6.54-5.3,11.836-11.839,11.836
	c-6.538,0-11.837-5.296-11.837-11.836c0-6.536,5.3-11.837,11.837-11.837C133.292,152.947,138.592,158.248,138.592,164.784z"/>
<circle fill="none" stroke="#FFFFFF" stroke-width="5" stroke-miterlimit="10" cx="177.529" cy="186.605" r="11.838"/>
<line fill="none" stroke="#FFFFFF" stroke-width="5" stroke-linecap="round" stroke-miterlimit="10" x1="165.69" y1="141.537" x2="138.592" y2="208.001"/>
</svg>
