<svg xmlns="http://www.w3.org/2000/svg" width="120" height="104" viewBox="0 0 120 104">
  <g id="auchan_biznes__kommentarii" data-name="auchan_biznes_ kommentarii" transform="translate(-1187 -1432)">
    <g id="Group_34" data-name="Group 34" transform="translate(-30.248 -327.503)">
      <path id="Path_116" data-name="Path 116" d="M6927.544,769.38h-21.129a1.36,1.36,0,0,0-1.345,1.349,1.341,1.341,0,0,0,1.345,1.345h21.129a1.341,1.341,0,0,0,1.349-1.345A1.36,1.36,0,0,0,6927.544,769.38Z" transform="translate(-5646.191 1045.777)" fill="#2078ba"/>
      <path id="Path_117" data-name="Path 117" d="M6936.821,891.12h-30.406a1.359,1.359,0,0,0-1.345,1.345,1.344,1.344,0,0,0,1.345,1.349h30.406a1.345,1.345,0,0,0,1.35-1.349,1.36,1.36,0,0,0-1.35-1.345Z" transform="translate(-5646.192 933.326)" fill="#2078ba"/>
      <path id="Path_118" data-name="Path 118" d="M6936.821,1012.86h-30.406a1.339,1.339,0,0,0-1.345,1.345,1.359,1.359,0,0,0,1.345,1.345h30.406a1.36,1.36,0,0,0,1.35-1.345,1.34,1.34,0,0,0-1.35-1.345Z" transform="translate(-5646.192 820.875)" fill="#2078ba"/>
      <path id="Path_119" data-name="Path 119" d="M6774.633,491.666a29.322,29.322,0,1,1-29.308-29.312,29.7,29.7,0,0,1,10.977,2.1,1.337,1.337,0,1,0,1.007-2.476,32,32,0,1,0,20.015,29.69,1.345,1.345,0,1,0-2.69,0Z" transform="translate(-5469.083 1331.864)" fill="#2078ba"/>
      <path id="Path_120" data-name="Path 120" d="M7278.385,484.3l4.453-23.311a1.379,1.379,0,0,0-1.074-1.588,1.358,1.358,0,0,0-1.572,1.078l-4.45,23.311a1.329,1.329,0,0,0,1.071,1.56A1.315,1.315,0,0,0,7278.385,484.3Zm10.316-10.5L7275.91,484.54a1.34,1.34,0,1,0,1.73,2.046l12.792-10.738a1.34,1.34,0,1,0-1.73-2.046Zm-10.878,10.9-8.691-10.742a1.363,1.363,0,0,0-1.891-.187,1.333,1.333,0,0,0-.2,1.882l8.692,10.742a1.345,1.345,0,0,0,1.895.214A1.368,1.368,0,0,0,7277.823,484.7Z" transform="translate(-5980.264 1332.125)" fill="#2078ba"/>
    </g>
    <rect id="Rectangle_80" data-name="Rectangle 80" width="120" height="104" transform="translate(1187 1432)" fill="none"/>
  </g>
</svg>
