<?xml version="1.0" encoding="UTF-8"?>
<!DOCTYPE svg PUBLIC "-//W3C//DTD SVG 1.1//EN" "http://www.w3.org/Graphics/SVG/1.1/DTD/svg11.dtd">
<!-- Creator: CorelDRAW X8 -->
<svg xmlns="http://www.w3.org/2000/svg" xml:space="preserve" width="263px" height="267px" version="1.1" style="shape-rendering:geometricPrecision; text-rendering:geometricPrecision; image-rendering:optimizeQuality; fill-rule:evenodd; clip-rule:evenodd"
viewBox="0 0 15 16"
 xmlns:xlink="http://www.w3.org/1999/xlink">
 <defs>
  <style type="text/css">
   <![CDATA[
    .fil2 {fill:#EE4D5C}
    .fil0 {fill:white}
    .fil1 {fill:white}
   ]]>
  </style>
 </defs>
 <g id="Слой_x0020_1">
  <metadata id="CorelCorpID_0Corel-Layer"/>
  <path class="fil0" d="M2 2l9 0c0,-2 0,-2 -2,-2l-5 0c-2,0 -2,1 -2,2z"/>
  <g id="_1938930876400">
   <circle class="fil1" cx="8" cy="8" r="8"/>
   <path class="fil2" d="M5 4l0 2c0,0 -1,0 -2,0 -1,0 -1,0 -1,3 0,2 0,1 3,1 0,3 0,3 1,3l3 0c1,0 1,0 1,-3 2,0 3,1 3,-1 0,-4 1,-3 -3,-3 0,-3 0,-3 -1,-3 -4,0 -4,0 -4,1z"/>
  </g>
 </g>
</svg>
