<?xml version="1.0" encoding="utf-8"?>
<!-- Generator: Adobe Illustrator 20.1.0, SVG Export Plug-In . SVG Version: 6.00 Build 0)  -->
<svg version="1.1" id="Слой_1" xmlns="http://www.w3.org/2000/svg" xmlns:xlink="http://www.w3.org/1999/xlink" x="0px" y="0px"
	 viewBox="0 0 250 250" style="enable-background:new 0 0 250 250;" xml:space="preserve">
<style type="text/css">
	.st0{fill:none;}
</style>
<path d="M201.7,166.8c-13.4-8.8-29.1-14.7-39.2-14.8l-7.1-0.5C171,139.1,181,116.8,181,90.3c0-39.8-25-72.1-55.8-72.1
	c-30.8,0-55.8,32.4-55.8,72.1c0,25.8,10.5,48.5,26.3,61.2l-8.9,0.6c-10.1,0.1-25.8,6-39.2,14.8c-9.5,6.2-25.5,18.9-25.5,34
	c0,21.3,14.5,34,38.7,34h127.6c24.2,0,38.7-12.7,38.7-34C227.1,185.7,211.2,173.1,201.7,166.8z M82.1,90.3
	c0-32.8,19.3-59.5,43.1-59.5c23.8,0,43.1,26.7,43.1,59.5c0,33.2-17.7,58.3-41.5,59.4l-2.6-0.2c-0.3,0-0.6,0-0.9,0l-1.1,0.1
	C99.9,147.5,82.1,121.7,82.1,90.3z M188.5,222.2H60.9c-17.3,0-26-7.2-26-21.3c0-15.1,36.2-36.1,52.2-36.1c0.1,0,0.3,0,0.4,0
	l34.7-2.5c1,0.1,2,0.1,3,0.1c0.5,0,0.9,0,1.4,0l35.2,2.4c0.1,0,0.3,0,0.4,0c7.6,0,21.2,5.3,32.5,12.7c12.2,8,19.7,16.9,19.7,23.4
	C214.5,215,205.7,222.2,188.5,222.2z"/>
</svg>
