<svg xmlns="http://www.w3.org/2000/svg" width="64" height="64" viewBox="0 0 64 64">
  <g id="auchan_biznes_telefon" transform="translate(-1215 -936)">
    <path id="auchan_biznes_telefon-2" data-name="auchan_biznes_telefon" d="M1535.461,37.7l.469-.932-10.124-5.123a3.069,3.069,0,0,0-1.334-.332,2.911,2.911,0,0,0-1.637.5l-4.961,3.3.574.849.607-.828a72.912,72.912,0,0,1-8.815-7.527,73.713,73.713,0,0,1-7.533-8.815l-.837.6.862.579,3.243-4.915a2.869,2.869,0,0,0,.491-1.615,2.955,2.955,0,0,0-.331-1.368l-5.2-10.016a3.8,3.8,0,0,0-5.917-1.079L1488,7.239a2.974,2.974,0,0,0-.837,3.17c2.769,7.965,8.18,16.508,15.808,24.138,7.809,7.8,16.563,13.294,24.7,15.989a2.75,2.75,0,0,0,.911.144,2.946,2.946,0,0,0,2.214-.993l6.252-6.99a3.745,3.745,0,0,0,.969-2.529,3.8,3.8,0,0,0-2.085-3.4l-.469.932-.469.913a1.734,1.734,0,0,1,.95,1.555,1.646,1.646,0,0,1-.441,1.14L1529.25,48.3a.885.885,0,0,1-.669.313l-.254-.043c-7.763-2.569-16.286-7.88-23.888-15.489-7.432-7.423-12.674-15.741-15.314-23.351l-.043-.27a.877.877,0,0,1,.306-.662l7.012-6.282a1.739,1.739,0,0,1,2.692.5l5.2,10.016.1.414-.144.475-3.643,5.5.42.58a73.424,73.424,0,0,0,7.748,9.063,74.465,74.465,0,0,0,9.063,7.754l.583.417,5.562-3.67.49-.169.4.1,10.124,5.123Z" transform="translate(-266.01 941.441)" fill="#474955"/>
    <rect id="Rectangle_83" data-name="Rectangle 83" width="64" height="64" transform="translate(1215 936)" fill="none"/>
  </g>
</svg>
