<svg xmlns="http://www.w3.org/2000/svg" width="120" height="104" viewBox="0 0 120 104">
  <g id="auchan_biznes_dostavka" transform="translate(-1187 -1704)">
    <g id="Group_30" data-name="Group 30" transform="translate(1204 1744.683)">
      <path id="Path_81" data-name="Path 81" d="M3889.81,3025.262h5.384v-2.692h-5.384Z" transform="translate(-3884.425 -2988.412)" fill="#2078ba"/>
      <path id="Path_82" data-name="Path 82" d="M3854.55,2813.611h10.768v-2.691H3854.55Z" transform="translate(-3851.856 -2792.912)" fill="#2078ba"/>
      <path id="Path_83" data-name="Path 83" d="M3819.24,2601.951h16.151v-2.691H3819.24Z" transform="translate(-3819.24 -2597.402)" fill="#2078ba"/>
      <path id="Path_84" data-name="Path 84" d="M4141.706,2611.41v-1.345h-36.949l5.683-32.46h35.819l-5.877,33.591,1.325.215v0l1.325.243,6.157-35.183a1.353,1.353,0,0,0-1.325-1.561H4109.31a1.338,1.338,0,0,0-1.326,1.1l-6.157,35.183a1.318,1.318,0,0,0,.3,1.078,1.283,1.283,0,0,0,1.031.482h38.549a1.33,1.33,0,0,0,1.325-1.1Z" transform="translate(-4080.248 -2574.91)" fill="#2078ba"/>
      <path id="Path_85" data-name="Path 85" d="M4147.669,3036.975v-1.345H4088.83a1.367,1.367,0,0,0-1.329,1.131l-1.182,6.758a1.4,1.4,0,0,0,.294,1.1,1.363,1.363,0,0,0,1.031.458h58.843a1.337,1.337,0,0,0,1.325-1.1l1.182-6.757a1.317,1.317,0,0,0-.294-1.1,1.37,1.37,0,0,0-1.031-.486v1.345l-1.326-.215-.986,5.627h-56.109l.712-4.068h57.709v-1.345l-1.326-.215Z" transform="translate(-4065.921 -3000.476)" fill="#2078ba"/>
      <path id="Path_86" data-name="Path 86" d="M4673.078,2719.42h7.7l3.987,10.42a1.322,1.322,0,0,0,.817.78l3.339,1.186-1.7,9.688a1.349,1.349,0,0,0,2.654.485l1.9-10.845a1.36,1.36,0,0,0-.888-1.509l-3.828-1.322-4.091-10.71a1.323,1.323,0,0,0-1.262-.864h-8.625a1.342,1.342,0,0,0-1.349,1.345A1.357,1.357,0,0,0,4673.078,2719.42Z" transform="translate(-4606.682 -2705.908)" fill="#2078ba"/>
      <path id="Path_87" data-name="Path 87" d="M4149.463,3197.424a5.035,5.035,0,0,1-4.776,4.063,3.311,3.311,0,0,1-3.351-4.063,5.053,5.053,0,0,1,4.776-4.064A3.322,3.322,0,0,1,4149.463,3197.424Z" transform="translate(-4116.7 -3146.17)" fill="#2078ba"/>
      <path id="Path_88" data-name="Path 88" d="M4664.013,3197.424a5.031,5.031,0,0,1-4.776,4.063,3.311,3.311,0,0,1-3.351-4.063,5.055,5.055,0,0,1,4.772-4.064A3.323,3.323,0,0,1,4664.013,3197.424Z" transform="translate(-4591.988 -3146.17)" fill="#2078ba"/>
      <path id="Path_89" data-name="Path 89" d="M4742.465,2812.983l1.067-6.081a1.347,1.347,0,0,0-2.651-.485l-1.067,6.085a1.347,1.347,0,0,0,2.651.481Z" transform="translate(-4669.553 -2787.734)" fill="#2078ba"/>
      <path id="Path_90" data-name="Path 90" d="M4026.177,3124.2h-9.472a1.354,1.354,0,0,0-1.345,1.345,1.339,1.339,0,0,0,1.345,1.345h9.472a1.341,1.341,0,0,0,1.345-1.345A1.357,1.357,0,0,0,4026.177,3124.2Z" transform="translate(-4000.396 -3082.287)" fill="#2078ba"/>
    </g>
    <rect id="Rectangle_82" data-name="Rectangle 82" width="120" height="104" transform="translate(1187 1704)" fill="none"/>
  </g>
</svg>
