<?xml version="1.0" encoding="utf-8"?>
<!-- Generator: Adobe Illustrator 20.1.0, SVG Export Plug-In . SVG Version: 6.00 Build 0)  -->
<svg version="1.1" id="Слой_1" xmlns="http://www.w3.org/2000/svg" xmlns:xlink="http://www.w3.org/1999/xlink" x="0px" y="0px"
	 viewBox="0 0 250 250" style="enable-background:new 0 0 250 250;" xml:space="preserve">
<g>
	<path d="M125.7,57.8c-19.4,0-35.2,15.8-35.2,35.2c0,3.5,2.8,6.4,6.3,6.4s6.3-2.8,6.3-6.4c0-12.4,10.1-22.5,22.5-22.5
		s22.5,10.1,22.5,22.5c0,10.8-7,15.7-15.1,21.2c-2.3,1.6-4.6,3.2-6.7,4.9c-1.5,1.3-9,8.6-7.9,29.1v7.4c0,3.5,2.8,6.3,6.3,6.3
		s6.3-2.8,6.3-6.3v-7.5c0-0.1,0-0.2,0-0.4c-0.4-7.2,0.9-16.7,3.3-18.7c1.7-1.4,3.7-2.8,5.8-4.3c8.7-6,20.6-14.2,20.6-31.7
		C161,73.6,145.2,57.8,125.7,57.8z"/>
	<path d="M124.9,168c-3.5,0-6.3,2.8-6.3,6.4v4.8c0,3.5,2.8,6.3,6.3,6.3s6.4-2.8,6.4-6.3v-4.8C131.2,170.8,128.4,168,124.9,168z"/>
	<path d="M125,17.7C65.8,17.7,17.7,65.8,17.7,125S65.8,232.3,125,232.3S232.3,184.2,232.3,125C232.3,65.8,184.1,17.7,125,17.7z
		 M125,219.6c-52.2,0-94.6-42.4-94.6-94.6S72.8,30.4,125,30.4s94.6,42.4,94.6,94.6S177.1,219.6,125,219.6z"/>
</g>
</svg>
