<?xml version="1.0" encoding="utf-8"?>
<!-- Generator: Adobe Illustrator 20.1.0, SVG Export Plug-In . SVG Version: 6.00 Build 0)  -->
<svg version="1.1" id="Слой_1" xmlns="http://www.w3.org/2000/svg" xmlns:xlink="http://www.w3.org/1999/xlink" x="0px" y="0px"
	 viewBox="0 0 250 250" style="enable-background:new 0 0 250 250;" xml:space="preserve" >
<style type="text/css">
	.st0{fill:none;}
</style>
<g>
	<path d="M125,18c-39.1,0-71,31.8-71,71c0,55.5,64.8,140.8,67.6,144.4c0.8,1.1,2.1,1.7,3.4,1.7c1.3,0,2.6-0.6,3.4-1.7
		c2.8-3.6,67.6-88.9,67.6-144.4C196,49.8,164.1,18,125,18z M125,223.6c-13.5-18.5-62.4-89-62.4-134.7c0-34.4,28-62.4,62.4-62.4
		s62.4,28,62.4,62.4C187.5,134.6,138.5,205.1,125,223.6z"/>
	<path d="M125,55.8c-16.1,0-29.2,13.1-29.2,29.2c0,16.1,13.1,29.2,29.2,29.2c16.1,0,29.2-13.1,29.2-29.2
		C154.2,68.9,141.1,55.8,125,55.8z M125,105.6c-11.4,0-20.7-9.3-20.7-20.7c0-11.4,9.3-20.7,20.7-20.7c11.4,0,20.7,9.3,20.7,20.7
		C145.7,96.4,136.4,105.6,125,105.6z"/>
</g>
</svg>
