<?xml version="1.0" standalone="no"?>
<!DOCTYPE svg PUBLIC "-//W3C//DTD SVG 20010904//EN"
 "http://www.w3.org/TR/2001/REC-SVG-20010904/DTD/svg10.dtd">
<svg version="1.0" xmlns="http://www.w3.org/2000/svg"
 width="1280.000000pt" height="1266.000000pt" viewBox="0 0 1280.000000 1266.000000"
 preserveAspectRatio="xMidYMid meet">
<metadata>
Created by potrace 1.16, written by Peter Selinger 2001-2019
</metadata>
<g transform="translate(0.000000,1266.000000) scale(0.100000,-0.100000)"
fill="#000000" stroke="none">
<path d="M11110 12471 c0 -5 45 -119 100 -253 100 -241 101 -243 85 -276 -34
-73 -9 -150 64 -197 22 -14 47 -35 56 -48 33 -51 284 -762 272 -773 -2 -2 -16
0 -31 6 -75 28 -164 2 -231 -67 -67 -68 -146 -261 -161 -388 l-7 -55 154 0
c174 0 246 13 340 61 34 16 62 29 64 27 8 -10 40 -126 79 -288 94 -391 151
-711 181 -1026 17 -180 20 -625 5 -670 -6 -16 -24 -38 -40 -49 -43 -28 -78
-83 -86 -132 -5 -34 -1 -54 27 -113 l33 -72 -18 -66 c-54 -204 -207 -539 -366
-802 -118 -196 -296 -459 -566 -840 -260 -366 -410 -589 -524 -777 -41 -67
-76 -120 -78 -118 -6 5 96 241 237 549 210 457 182 411 265 437 97 29 136 51
179 98 33 37 37 47 37 96 0 61 -19 117 -52 152 -33 35 -26 94 30 260 60 177
86 275 111 424 11 61 23 115 28 119 4 5 28 5 53 0 63 -13 219 -12 280 1 47 10
50 12 50 42 0 45 -58 181 -113 265 -60 93 -113 132 -179 132 -59 0 -88 -18
-125 -76 -31 -49 -39 -53 -48 -24 -10 32 -115 140 -170 175 -81 52 -331 138
-312 108 4 -6 35 -20 69 -33 167 -60 314 -165 374 -267 27 -46 27 -47 10 -92
-24 -67 -20 -92 20 -147 34 -47 35 -52 31 -114 -10 -128 -112 -513 -150 -564
-11 -15 -17 -10 -51 34 -57 75 -99 93 -205 88 -72 -4 -96 -10 -148 -36 -122
-62 -282 -241 -376 -421 l-47 -89 52 -22 c134 -58 297 -103 427 -119 46 -6 86
-13 88 -15 5 -5 -30 -88 -145 -341 -275 -607 -413 -979 -477 -1285 -60 -285
-61 -588 -4 -1034 11 -87 19 -160 16 -162 -2 -2 -17 16 -34 40 -48 68 -128
123 -208 143 -251 62 -560 -142 -835 -552 -59 -87 -160 -277 -160 -299 0 -27
286 -133 505 -187 158 -39 294 -53 435 -45 188 9 304 53 414 157 l63 59 83
-203 c147 -360 382 -818 407 -793 3 2 -22 53 -56 113 -140 251 -322 658 -384
858 -13 44 -28 112 -32 150 -5 49 -19 97 -46 158 -92 204 -169 696 -169 1066
0 154 1 157 34 239 136 329 520 804 896 1107 332 267 625 372 805 286 116 -55
201 -181 251 -368 14 -54 28 -138 31 -188 l6 -90 -52 48 c-68 63 -120 87 -196
87 -77 0 -131 -25 -193 -87 -109 -109 -194 -337 -218 -580 l-7 -73 124 0 c174
0 284 15 408 55 59 19 114 35 121 35 16 0 9 -85 -26 -350 -28 -209 -43 -304
-81 -505 -26 -137 -27 -141 -65 -176 -85 -78 -98 -137 -52 -231 l26 -53 -46
-206 c-82 -369 -43 -295 64 119 6 23 16 42 21 42 6 0 48 -18 92 -40 45 -22
109 -47 142 -55 67 -17 238 -35 333 -35 l62 0 0 48 c-1 181 -83 428 -179 534
-58 65 -105 88 -179 88 -49 0 -68 -6 -115 -34 -41 -25 -57 -30 -57 -20 0 8 16
110 35 227 34 209 66 456 81 612 6 76 9 82 51 129 104 116 107 205 12 296
l-49 47 -10 104 c-33 353 -131 566 -301 656 -51 27 -60 28 -179 27 -109 0
-135 -4 -205 -28 -219 -75 -456 -246 -750 -540 -248 -248 -421 -470 -566 -726
-62 -109 -71 -102 -44 32 42 209 105 383 226 628 139 279 255 459 686 1061
540 756 717 1058 868 1489 26 74 50 138 54 142 4 5 36 -8 71 -26 142 -76 335
-116 552 -116 l111 0 -7 77 c-22 239 -106 461 -217 575 -123 126 -244 131
-382 16 l-50 -42 7 559 c3 308 9 618 13 688 l6 129 31 -6 c17 -4 81 -9 141
-12 97 -5 122 -2 209 20 148 38 186 55 186 80 0 27 -75 160 -132 233 -113 147
-248 198 -362 138 l-46 -24 0 54 c0 69 26 330 46 455 39 252 112 430 175 430
52 0 141 -130 231 -340 34 -79 54 -117 56 -104 4 26 -57 191 -105 289 -91 182
-169 233 -247 165 -96 -84 -151 -332 -205 -917 -16 -168 -24 -219 -41 -249
-23 -45 -26 -112 -5 -140 11 -15 14 -56 14 -204 -1 -209 -11 -366 -21 -335 -4
11 -16 76 -28 145 -30 179 -94 474 -152 700 -46 183 -49 198 -38 251 12 65 5
91 -38 140 -42 49 -44 55 -133 312 -44 127 -112 321 -151 430 -39 108 -69 200
-66 202 3 3 65 9 139 14 142 10 169 16 169 35 0 17 -35 123 -60 182 -32 74
-105 169 -156 203 -80 53 -145 39 -199 -41 -25 -38 -34 -46 -43 -35 -6 7 -40
77 -76 154 -107 234 -146 306 -146 274z"/>
<path d="M6480 2600 c0 -121 52 -367 109 -520 19 -51 82 -168 124 -231 l18
-27 -78 -28 c-83 -29 -405 -146 -827 -300 -142 -52 -260 -93 -263 -91 -2 2 12
16 32 31 44 34 65 74 65 125 0 151 -182 278 -445 310 -98 12 -234 15 -259 5
-23 -9 -20 -89 8 -214 39 -170 89 -288 157 -364 16 -19 29 -36 29 -39 0 -20
-536 -162 -766 -203 -126 -22 -188 -27 -401 -31 -169 -4 -284 -2 -350 7 -154
19 -392 95 -555 176 -71 36 -90 50 -101 77 -16 37 -165 204 -207 230 -28 18
-118 26 -139 13 -21 -13 -70 26 -211 171 -144 146 -205 217 -329 381 -35 46
-65 81 -69 78 -8 -9 82 -149 167 -261 42 -55 135 -160 206 -235 189 -196 173
-168 131 -237 -45 -74 -80 -182 -99 -302 l-14 -93 141 5 c187 6 272 35 368
124 l48 46 138 -61 c283 -125 500 -172 790 -172 319 0 687 64 1122 196 139 42
164 47 242 45 98 -2 124 7 189 66 48 44 130 79 539 233 513 193 734 270 774
270 34 0 7 -16 -159 -93 -88 -41 -357 -172 -598 -291 -928 -458 -1256 -593
-1715 -708 l-124 -31 -62 65 c-83 87 -132 112 -216 112 -105 0 -189 -57 -279
-189 l-47 -70 -60 -8 c-92 -13 -688 -1 -879 18 -218 21 -503 60 -535 75 -14 6
-40 21 -57 34 -18 13 -54 27 -80 31 -26 4 -66 16 -88 28 -57 29 -176 34 -230
9 l-40 -18 -142 33 c-284 65 -663 172 -1023 288 -129 41 -239 75 -243 75 -27
0 17 -24 111 -60 274 -107 611 -210 1021 -314 l244 -62 1 -160 c1 -147 3 -165
29 -239 48 -135 68 -175 87 -175 33 0 173 102 261 189 94 94 121 136 139 224
6 31 17 57 23 57 7 0 83 -9 171 -20 337 -44 442 -51 831 -56 215 -3 400 -7
412 -10 l22 -4 -20 -68 c-26 -88 -56 -231 -64 -307 -3 -33 -9 -73 -12 -89 l-5
-29 193 6 c228 6 330 26 457 87 96 46 190 129 223 196 32 67 29 145 -8 197
-16 23 -48 55 -72 71 -24 16 -39 32 -34 37 5 5 83 29 173 54 211 58 391 119
605 205 263 105 298 121 995 465 360 178 698 342 750 365 l95 43 60 -22 c91
-32 186 -29 250 8 48 27 122 99 175 169 22 29 38 37 135 63 144 38 326 73 500
96 174 22 735 25 910 5 341 -40 675 -106 915 -181 72 -23 118 -28 88 -10 -58
34 -451 134 -673 173 -308 52 -416 61 -780 61 -361 0 -458 -8 -780 -61 -197
-32 -194 -32 -159 9 39 47 54 89 54 154 -1 104 -61 198 -182 283 -151 106
-357 159 -655 167 l-193 6 0 -63z"/>
<path d="M8060 1818 c-37 -23 -74 -58 -115 -113 l-61 -80 -180 -36 c-297 -59
-483 -132 -578 -225 -181 -179 24 -371 540 -504 121 -32 381 -80 428 -80 53 0
15 17 -89 40 -321 71 -514 129 -670 205 -193 93 -257 174 -210 265 46 90 226
172 550 251 141 34 199 38 191 12 -25 -83 -48 -205 -53 -286 l-6 -98 99 6
c355 21 539 96 604 247 27 63 23 110 -14 164 -23 35 -24 39 -9 48 24 13 609
-1 783 -19 433 -47 808 -125 1214 -255 193 -62 211 -67 201 -50 -3 5 -103 41
-222 80 -602 198 -1101 279 -1708 280 -93 0 -213 3 -265 6 l-95 7 -35 50 c-47
69 -115 110 -188 115 -50 3 -63 0 -112 -30z"/>
</g>
</svg>
