<?xml version="1.0" standalone="no"?>
<!DOCTYPE svg PUBLIC "-//W3C//DTD SVG 20010904//EN"
 "http://www.w3.org/TR/2001/REC-SVG-20010904/DTD/svg10.dtd">
<svg version="1.0" xmlns="http://www.w3.org/2000/svg"
 width="1280.000000pt" height="1266.000000pt" viewBox="0 0 1280.000000 1266.000000"
 preserveAspectRatio="xMidYMid meet">
<g transform="translate(0.000000,1266.000000) scale(0.100000,-0.100000)"
fill="#000000" stroke="none">
<path d="M1637 12382 c-26 -53 -73 -155 -105 -226 -31 -71 -63 -131 -69 -133
-7 -3 -21 14 -32 35 -23 44 -61 79 -98 88 -69 18 -180 -75 -243 -202 -36 -73
-81 -204 -74 -216 9 -14 110 -28 209 -28 82 0 105 -3 105 -14 0 -7 -32 -98
-71 -202 -39 -104 -111 -307 -159 -452 -81 -242 -90 -265 -124 -295 -47 -41
-58 -79 -39 -138 14 -44 14 -51 -16 -155 -65 -232 -163 -688 -196 -917 -4 -26
-11 -50 -16 -52 -12 -8 -18 61 -24 314 -5 215 -4 235 12 253 26 29 24 105 -4
144 -20 27 -24 53 -33 180 -17 228 -48 495 -76 637 -55 283 -130 404 -227 364
-69 -29 -151 -165 -221 -366 -48 -137 -45 -151 5 -26 87 217 175 356 235 371
79 20 153 -154 199 -466 21 -149 51 -478 43 -486 -4 -3 -28 8 -54 25 -105 69
-240 16 -362 -142 -52 -66 -132 -205 -132 -228 0 -11 28 -24 103 -47 180 -55
281 -64 395 -36 45 11 67 13 75 5 11 -11 28 -1360 17 -1373 -3 -5 -25 10 -49
33 -66 60 -116 83 -186 84 -47 0 -69 -6 -105 -27 -66 -38 -143 -125 -183 -204
-61 -121 -111 -313 -119 -454 l-3 -55 70 -3 c98 -5 284 16 391 43 87 22 201
71 236 102 9 8 22 13 28 11 6 -2 30 -62 54 -134 149 -444 333 -760 894 -1537
400 -554 518 -737 662 -1022 130 -256 204 -471 240 -693 18 -110 2 -111 -54
-5 -246 464 -781 1017 -1181 1222 -137 71 -224 95 -345 95 -93 1 -111 -2 -161
-25 -146 -69 -238 -217 -288 -466 -11 -54 -23 -144 -27 -200 l-7 -101 -43 -37
c-54 -45 -77 -87 -76 -141 0 -52 22 -94 79 -155 l45 -49 14 -147 c17 -185 45
-386 86 -616 17 -97 29 -180 26 -183 -4 -3 -30 12 -58 32 -120 86 -245 46
-345 -111 -68 -106 -124 -301 -128 -440 l-2 -70 120 3 c197 4 331 36 448 106
64 39 68 37 86 -39 26 -110 95 -349 97 -340 2 6 -18 107 -45 225 l-49 215 29
57 c32 64 35 93 15 141 -12 30 -70 90 -95 98 -21 7 -112 551 -146 871 -8 81
-15 150 -15 154 0 10 49 -2 122 -30 113 -43 218 -59 388 -60 l155 -1 -3 45
c-15 232 -95 463 -201 582 -125 139 -274 144 -401 14 -24 -25 -48 -46 -52 -46
-13 0 -9 80 7 176 44 257 135 418 273 482 49 23 70 27 152 27 78 0 111 -5 180
-29 307 -102 699 -423 1046 -857 162 -203 307 -443 355 -587 21 -62 22 -78 16
-262 -7 -211 -32 -437 -73 -650 -38 -205 -59 -278 -104 -363 -35 -68 -40 -87
-40 -143 0 -74 -25 -155 -123 -399 -89 -223 -219 -489 -345 -705 -13 -24 -13
-24 2 -5 30 36 178 305 246 449 37 78 98 218 134 311 37 94 74 185 82 203 l14
33 59 -60 c67 -68 165 -120 276 -148 94 -23 315 -23 445 1 171 30 413 105 582
180 l57 25 -30 67 c-91 201 -278 455 -438 598 -205 182 -437 246 -595 165 -48
-24 -118 -90 -148 -137 -11 -19 -24 -30 -29 -25 -5 5 0 68 11 143 44 295 60
618 40 808 -44 408 -181 806 -569 1646 -56 121 -99 226 -97 233 3 8 21 13 44
13 101 0 328 59 470 121 l54 24 -40 77 c-69 133 -180 277 -275 356 -86 72
-160 105 -248 110 -89 5 -140 -15 -186 -74 -64 -82 -62 -80 -72 -64 -6 8 -30
76 -55 150 -50 150 -91 330 -100 432 -5 65 -4 68 29 108 46 55 52 89 25 144
l-22 44 28 53 c65 119 195 213 391 279 54 18 72 28 48 24 -70 -11 -217 -64
-278 -101 -70 -42 -147 -117 -178 -173 -12 -22 -26 -40 -30 -40 -4 0 -19 20
-33 44 -66 114 -162 115 -262 3 -71 -80 -173 -312 -147 -338 20 -20 197 -34
275 -21 123 20 112 24 121 -38 29 -198 68 -353 138 -539 47 -124 52 -196 18
-227 -32 -28 -59 -93 -59 -145 0 -88 79 -158 224 -196 l68 -18 115 -245 c189
-404 323 -713 323 -741 0 -23 -23 9 -104 145 -113 191 -244 384 -536 791 -559
780 -778 1166 -906 1594 -28 92 -28 93 -10 125 41 68 49 91 48 133 0 54 -31
104 -86 143 -41 28 -43 32 -50 91 -11 108 -6 418 9 593 17 195 54 456 90 639
52 269 158 702 175 720 4 5 36 -8 72 -27 91 -50 184 -67 348 -64 l135 3 -3 44
c-5 64 -48 206 -84 276 -43 85 -83 132 -142 165 -58 34 -98 37 -156 14 -23 -9
-44 -13 -48 -10 -9 10 135 430 248 724 28 72 37 85 69 102 91 46 122 120 82
198 l-19 37 104 249 c57 137 102 251 101 253 -2 1 -25 -41 -50 -95z"/>
<path d="M6030 2653 c-293 -28 -489 -97 -614 -214 -141 -131 -165 -270 -66
-383 18 -20 30 -40 26 -43 -3 -4 -72 5 -154 20 -646 116 -1271 97 -1907 -59
-133 -32 -377 -106 -371 -112 3 -2 33 5 68 17 97 31 319 87 458 115 673 135
1352 124 1913 -32 l98 -27 50 -67 c51 -69 121 -127 183 -153 56 -24 139 -19
207 11 l58 26 173 -78 c95 -43 398 -191 673 -329 275 -138 572 -284 659 -324
336 -153 660 -274 930 -346 72 -20 148 -40 169 -46 44 -12 48 -32 8 -48 -36
-16 -97 -78 -110 -114 -53 -140 84 -308 316 -388 101 -35 273 -59 420 -59
l135 0 -6 67 c-13 122 -37 245 -66 337 -16 50 -27 92 -25 94 2 3 170 5 372 7
387 2 552 13 897 60 98 13 182 22 186 20 4 -3 10 -26 14 -53 10 -79 52 -149
141 -237 81 -79 245 -192 263 -181 15 9 77 173 97 254 17 72 17 225 0 293 l-7
25 199 48 c244 59 586 157 793 226 173 59 413 150 408 156 -2 2 -92 -26 -199
-62 -351 -117 -771 -235 -1122 -315 l-98 -22 -46 23 c-60 30 -140 25 -213 -13
-28 -15 -67 -27 -87 -27 -40 0 -67 -12 -105 -48 -23 -21 -47 -28 -185 -47
-382 -55 -782 -81 -1101 -71 -117 4 -218 9 -225 12 -7 2 -23 25 -37 51 -36 68
-125 160 -184 190 -72 37 -145 36 -215 -2 -47 -26 -72 -49 -139 -128 -25 -31
-9 -33 -210 19 -436 112 -815 271 -1727 726 -258 129 -519 256 -580 282 -125
54 -149 71 -119 83 24 9 231 -62 818 -283 435 -164 462 -175 505 -217 25 -25
60 -52 78 -61 36 -18 99 -21 138 -6 21 8 56 1 186 -40 293 -92 578 -156 811
-184 461 -56 795 -9 1151 161 l118 57 46 -48 c84 -88 226 -136 406 -136 l98 0
-7 53 c-17 142 -59 271 -114 352 -16 24 -30 47 -30 50 0 4 53 59 118 124 129
127 237 253 323 376 52 74 132 210 92 155 -169 -229 -255 -331 -396 -472 -147
-146 -167 -161 -201 -148 -70 26 -136 4 -191 -64 -17 -21 -56 -63 -87 -95 -32
-32 -58 -67 -58 -78 0 -29 -25 -47 -135 -99 -124 -58 -298 -116 -435 -146 -94
-20 -132 -22 -370 -23 -275 0 -354 8 -595 56 -213 43 -627 158 -649 180 -6 5
2 21 21 41 81 84 146 243 178 434 26 158 33 149 -115 148 -222 -2 -393 -53
-497 -148 -118 -107 -123 -220 -13 -294 39 -26 49 -42 26 -42 -8 0 -196 68
-418 150 -221 83 -481 178 -577 211 -97 33 -179 63 -183 67 -4 4 11 34 33 67
80 118 124 223 168 405 31 124 58 327 48 354 -5 14 -24 16 -129 14 -68 0 -139
-3 -158 -5z"/>
<path d="M4565 1831 c-54 -24 -98 -63 -131 -115 l-28 -44 -360 -5 c-532 -8
-860 -49 -1331 -168 -158 -40 -561 -169 -593 -190 -21 -13 -34 -17 198 59 423
138 863 225 1330 263 166 13 659 17 678 6 9 -6 5 -19 -17 -50 -42 -60 -47 -95
-21 -156 64 -148 262 -236 558 -248 l142 -6 0 45 c0 60 -25 199 -49 279 -12
37 -17 67 -11 73 29 29 509 -100 626 -169 214 -126 187 -256 -81 -385 -155
-75 -337 -130 -698 -210 -54 -12 -96 -24 -94 -26 6 -7 194 23 325 51 335 73
576 174 676 285 170 188 -96 384 -644 475 -52 8 -105 17 -117 20 -13 3 -36 28
-58 64 -62 104 -156 172 -236 171 -13 0 -42 -9 -64 -19z"/>
<path d="M2070 1290 c-8 -5 -10 -10 -5 -10 6 0 17 5 25 10 8 5 11 10 5 10 -5
0 -17 -5 -25 -10z"/>
</g>
</svg>
