<?xml version="1.0" encoding="utf-8"?>
<!-- Generator: Adobe Illustrator 20.1.0, SVG Export Plug-In . SVG Version: 6.00 Build 0)  -->
<svg version="1.1" id="Слой_1" xmlns="http://www.w3.org/2000/svg" xmlns:xlink="http://www.w3.org/1999/xlink" x="0px" y="0px"
	 viewBox="0 0 250 250" style="enable-background:new 0 0 250 250;" xml:space="preserve">
<style type="text/css">
	.st0{fill:none;}
</style>
<g>
	<path d="M200.8,176.2h-75.9c-2.4,0-4.3-1.8-4.3-4.1v-54.6c0-2.3,1.9-4.1,4.3-4.1h75.9c2.4,0,4.3,1.8,4.3,4.1v54.6
		C205,174.4,203.1,176.2,200.8,176.2z M129.2,168h67.4v-46.4h-67.4V168z"/>
	<path d="M104.5,217.3H51.4c-2.4,0-4.3-1.8-4.3-4.1v-96.7c0-2.3,1.9-4.1,4.3-4.1h53.1c2.4,0,4.3,1.8,4.3,4.1v96.7
		C108.7,215.4,106.8,217.3,104.5,217.3z M55.7,209.1h44.5v-88.5H55.7V209.1z"/>
	<path d="M163.1,176.2c-2.4,0-4.3-1.8-4.3-4.1v-54.6c0-2.3,1.9-4.1,4.3-4.1s4.3,1.8,4.3,4.1v54.6
		C167.4,174.4,165.5,176.2,163.1,176.2z"/>
	<g>
		<path class="st0" d="M185,82.3c-5.5,9.1-15.8,15.3-27.5,15.3c-13.6,0-25.2-8.2-29.7-19.8c-4.5,11.5-16.2,19.8-29.7,19.8
			c-13.5,0-25.1-8.1-29.6-19.6c-4.6,11.4-16.1,19.6-29.6,19.6c-1.9,0-3.8-0.2-5.7-0.5v112.7h186.7v-113c-2.3,0.5-4.7,0.8-7.2,0.8
			C200.8,97.6,190.5,91.5,185,82.3z"/>
		<path d="M219.8,209.8H33.1V97.1c-3-0.5-5.9-1.5-8.5-2.7v119.5c0,2.3,1.9,4.1,4.3,4.1H224c2.4,0,4.3-1.8,4.3-4.1V93.6
			c-2.6,1.4-5.5,2.5-8.5,3.2V209.8z"/>
		<path d="M66.3,63c0.8,0,1.5,0.2,2.1,0.6c0.6-0.4,1.3-0.6,2.1-0.6c2.4,0,4.3,1.8,4.3,4.1h46.5c0-2.3,1.9-4.1,4.3-4.1
			c0.8,0,1.6,0.2,2.2,0.6c0.6-0.4,1.4-0.6,2.2-0.6c2.4,0,4.3,1.8,4.3,4.1h46.5c0-2.3,1.9-4.1,4.3-4.1c2.4,0,4.3,1.8,4.3,4.1h39v-0.8
			c0-2.3-1.9-4.1-4.3-4.1H28.8c-2.4,0-4.3,1.8-4.3,4.1v0.8H62C62,64.8,63.9,63,66.3,63z"/>
		<path d="M68.4,78.1c-1-2.4-1.6-5-1.9-7.7h-0.4c-1.7,13.1-13.3,23.2-27.3,23.2c-1.9,0-3.8-0.2-5.7-0.6v4.2c1.8,0.3,3.7,0.5,5.7,0.5
			C52.3,97.6,63.8,89.5,68.4,78.1z"/>
		<path d="M11.3,67.1h4.3c0-2.3-1.9-4.1-4.3-4.1S7,64.8,7,67.1C7,79,14.2,89.4,24.6,94.4v-4.7C16.6,85.1,11.3,76.7,11.3,67.1z"/>
		<path d="M33.1,93c-3.1-0.6-5.9-1.7-8.5-3.2v4.7c2.6,1.3,5.5,2.2,8.5,2.7V93z"/>
		<path d="M66.1,70.4h0.4c-0.1-1.1-0.2-2.2-0.2-3.3C66.3,68.2,66.2,69.3,66.1,70.4z"/>
		<path d="M68.4,63.6c-0.6-0.4-1.3-0.6-2.1-0.6c-2.4,0-4.3,1.8-4.3,4.1h4.3C66.3,65.6,67.2,64.3,68.4,63.6z"/>
		<path d="M24.6,89.8v-5c-5.5-4.1-9.1-10.5-9.1-17.7h-4.3C11.3,76.7,16.6,85.1,24.6,89.8z"/>
		<path d="M66.1,70.4h-4.3c-1.7,10.8-11.3,19.1-23,19.1c-2,0-3.9-0.2-5.7-0.7V93c1.8,0.4,3.7,0.6,5.7,0.6
			C52.8,93.6,64.4,83.4,66.1,70.4z"/>
		<path d="M24.6,84.8v5c2.6,1.5,5.5,2.6,8.5,3.2v-4.2C30,88,27.1,86.6,24.6,84.8z"/>
		<path d="M66.3,67.1H62c0,1.1-0.1,2.2-0.3,3.3h4.3C66.2,69.3,66.3,68.2,66.3,67.1z"/>
		<path d="M125.4,70.4c-1.7,13.1-13.3,23.2-27.3,23.2S72.4,83.4,70.8,70.4h-0.4c-0.3,2.7-1,5.3-1.9,7.7C73,89.5,84.6,97.6,98.1,97.6
			c13.6,0,25.2-8.2,29.7-19.8c-0.9-2.4-1.6-4.9-1.9-7.5H125.4z"/>
		<path d="M70.5,67.1c0,1.1-0.1,2.2-0.2,3.3h0.4C70.6,69.3,70.5,68.2,70.5,67.1z"/>
		<path d="M70.5,67.1h4.3c0-2.3-1.9-4.1-4.3-4.1c-0.8,0-1.5,0.2-2.1,0.6C69.7,64.3,70.5,65.6,70.5,67.1z"/>
		<path d="M125.4,70.4h0.6c-0.1-1.1-0.2-2.2-0.2-3.3c0-1.5,0.8-2.8,2-3.5c-0.6-0.4-1.4-0.6-2.2-0.6c-2.4,0-4.3,1.8-4.3,4.1h4.3
			C125.6,68.2,125.5,69.3,125.4,70.4z"/>
		<path d="M66.5,70.4c0.3,2.7,1,5.3,1.9,7.7c1-2.4,1.6-5,1.9-7.7H66.5z"/>
		<path d="M66.3,67.1c0,1.1,0.1,2.2,0.2,3.3h3.9c0.1-1.1,0.2-2.2,0.2-3.3c0-1.5-0.9-2.8-2.1-3.5C67.2,64.3,66.3,65.6,66.3,67.1z"/>
		<path d="M98.1,93.6c14,0,25.6-10.1,27.3-23.2h-4.3c-1.7,10.8-11.3,19.1-23,19.1c-11.7,0-21.4-8.3-23-19.1h-4.3
			C72.4,83.4,84,93.6,98.1,93.6z"/>
		<path d="M125.4,70.4c0.1-1.1,0.2-2.2,0.2-3.3h-4.3c0,1.1-0.1,2.2-0.3,3.3H125.4z"/>
		<path d="M70.8,70.4h4.3c-0.2-1.1-0.3-2.2-0.3-3.3h-4.3C70.5,68.2,70.6,69.3,70.8,70.4z"/>
		<path d="M157.5,93.6c-14,0-25.6-10.1-27.3-23.2h-0.6c-0.3,2.6-0.9,5.1-1.9,7.5c4.5,11.5,16.2,19.8,29.7,19.8
			c11.7,0,22-6.2,27.5-15.3c-0.9-1.5-1.7-3-2.3-4.7C178.5,87,168.8,93.6,157.5,93.6z"/>
		<path d="M129.8,67.1c0,1.1-0.1,2.2-0.2,3.3h0.6c-0.1-1.1-0.2-2.2-0.2-3.3h4.3c0-2.3-1.9-4.1-4.3-4.1c-0.8,0-1.6,0.2-2.2,0.6
			C129,64.3,129.8,65.6,129.8,67.1z"/>
		<path d="M125.9,70.4c0.3,2.6,0.9,5.1,1.9,7.5c0.9-2.4,1.6-4.9,1.9-7.5H125.9z"/>
		<path d="M125.7,67.1c0,1.1,0.1,2.2,0.2,3.3h3.7c0.1-1.1,0.2-2.2,0.2-3.3c0-1.5-0.8-2.8-2-3.5C126.6,64.3,125.7,65.6,125.7,67.1z"
			/>
		<path d="M157.5,93.6c11.3,0,21-6.5,25.2-15.9c-0.9-2.3-1.5-4.8-1.8-7.3h-0.4c-1.7,10.8-11.3,19.1-23,19.1
			c-11.7,0-21.4-8.3-23-19.1h-4.3C131.9,83.4,143.5,93.6,157.5,93.6z"/>
		<path d="M181,70.4c-0.1-1.1-0.2-2.2-0.2-3.3c0,1.1-0.1,2.2-0.3,3.3H181z"/>
		<path d="M130.2,70.4h4.3c-0.2-1.1-0.3-2.2-0.3-3.3H130C130,68.2,130.1,69.3,130.2,70.4z"/>
		<path d="M244.3,67.1c0-2.3-1.9-4.1-4.3-4.1s-4.3,1.8-4.3,4.1h4.3c0,9-4.7,16.9-11.8,21.7v4.8C237.9,88.4,244.3,78.4,244.3,67.1z"
			/>
		<path d="M187.3,77.7c-0.6,1.6-1.4,3.2-2.3,4.7c5.5,9.1,15.8,15.3,27.5,15.3c2.5,0,4.9-0.3,7.2-0.8v-4.2c-2.3,0.6-4.7,0.9-7.2,0.9
			C201.3,93.6,191.6,87,187.3,77.7z"/>
		<path d="M219.8,92.6v4.2c3-0.7,5.9-1.8,8.5-3.2v-4.8C225.7,90.5,222.9,91.8,219.8,92.6z"/>
		<path d="M184.8,70.4c-0.3,2.6-1,5-2.1,7.3c0.6,1.6,1.4,3.2,2.3,4.7c0.9-1.5,1.7-3,2.3-4.7c-1-2.3-1.7-4.7-2.1-7.3H184.8z"/>
		<path d="M189.3,67.1c0-2.3-1.9-4.1-4.3-4.1c-2.4,0-4.3,1.8-4.3,4.1h4.3H189.3z"/>
		<path d="M185,67.1c0,1.1-0.1,2.2-0.2,3.3h0.4C185.1,69.3,185,68.2,185,67.1z"/>
		<path d="M184.8,70.4H181c0.3,2.5,0.9,5,1.8,7.3C183.8,75.4,184.5,72.9,184.8,70.4z"/>
		<path d="M184.8,70.4c0.1-1.1,0.2-2.2,0.2-3.3h-4.3c0,1.1,0.1,2.2,0.2,3.3H184.8z"/>
		<path d="M228.3,83.6v5.2c7.1-4.8,11.8-12.7,11.8-21.7h-4.3C235.8,73.6,232.9,79.5,228.3,83.6z"/>
		<path d="M212.6,89.5c-11.7,0-21.4-8.3-23-19.1h-0.4c-0.3,2.5-0.9,5-1.8,7.3c4.2,9.4,13.9,15.9,25.2,15.9c2.5,0,4.9-0.3,7.2-0.9
			v-4.3C217.5,89.1,215.1,89.5,212.6,89.5z"/>
		<path d="M189.5,70.4c-0.2-1.1-0.3-2.2-0.3-3.3c0,1.1-0.1,2.2-0.2,3.3H189.5z"/>
		<path d="M219.8,88.4v4.3c3.1-0.8,6-2.1,8.5-3.8v-5.2C225.9,85.7,223,87.3,219.8,88.4z"/>
		<path d="M187.3,77.7c0.9-2.3,1.5-4.8,1.8-7.3h-3.9C185.6,72.9,186.3,75.4,187.3,77.7z"/>
		<path d="M185.3,70.4h3.9c0.1-1.1,0.2-2.2,0.2-3.3H185C185,68.2,185.1,69.3,185.3,70.4z"/>
	</g>
	<path d="M237.5,234.3H13.7c-3.7,0-6.7-2.9-6.7-6.4V217c0-3.5,3-6.4,6.7-6.4h223.8c3.7,0,6.7,2.9,6.7,6.4v10.9
		C244.2,231.5,241.2,234.3,237.5,234.3z M15.5,226.2h220.1v-7.3H15.5V226.2z"/>
	<path d="M237.5,70.4H13.7C10,70.4,7,67.5,7,63.9c0-0.6,0.1-1.1,0.4-1.6l16.8-36.7c0.5-3,3.3-5.4,6.6-5.4h191.5
		c3.3,0,6.1,2.4,6.6,5.5l15.1,36.8c0.2,0.5,0.3,1,0.3,1.5C244.2,67.5,241.2,70.4,237.5,70.4z M16.7,62.2h217.9l-13.9-33.8H32.1
		L16.7,62.2z"/>
</g>
</svg>
